<mxfile host="app.diagrams.net" modified="2022-03-10T16:35:02.168Z" agent="5.0 (Windows NT 10.0; Win64; x64) AppleWebKit/537.36 (KHTML, like Gecko) Chrome/98.0.4758.109 Safari/537.36 OPR/84.0.4316.31" etag="txoDo9SNGiVtaiy6UQhU" version="17.0.0" type="github">
  <diagram name="equipment-status" id="58cdce13-f638-feb5-8d6f-7d28b1aa9fa0">
    <mxGraphModel dx="1382" dy="787" grid="1" gridSize="10" guides="1" tooltips="1" connect="1" arrows="1" fold="1" page="1" pageScale="1" pageWidth="1100" pageHeight="850" background="none" math="0" shadow="0">
      <root>
        <mxCell id="0" />
        <mxCell id="1" parent="0" />
        <mxCell id="382b91b5511bd0f7-1" value="" style="ellipse;html=1;shape=startState;fillColor=#000000;strokeColor=#ff0000;rounded=1;shadow=0;comic=0;labelBackgroundColor=none;fontFamily=Verdana;fontSize=12;fontColor=#000000;align=center;direction=south;" parent="1" vertex="1">
          <mxGeometry x="216" y="157.5" width="30" height="30" as="geometry" />
        </mxCell>
        <mxCell id="xOWjK45ZcuusnBk7tprW-59" style="edgeStyle=orthogonalEdgeStyle;rounded=1;orthogonalLoop=1;jettySize=auto;html=1;entryX=0.5;entryY=1;entryDx=0;entryDy=0;fontSize=12;fontFamily=Verdana;fillColor=#ffffc0;strokeColor=#ff0000;fontColor=#000000;arcSize=24;shadow=0;comic=0;labelBackgroundColor=none;" parent="1" source="382b91b5511bd0f7-5" target="xOWjK45ZcuusnBk7tprW-56" edge="1">
          <mxGeometry relative="1" as="geometry" />
        </mxCell>
        <mxCell id="382b91b5511bd0f7-5" value="Extracción OK" style="rounded=1;whiteSpace=wrap;html=1;arcSize=24;fillColor=#ffffc0;strokeColor=#ff0000;shadow=0;comic=0;labelBackgroundColor=none;fontFamily=Verdana;fontSize=12;fontColor=#000000;align=center;" parent="1" vertex="1">
          <mxGeometry x="799" y="697.5" width="120" height="60" as="geometry" />
        </mxCell>
        <mxCell id="382b91b5511bd0f7-6" value="En progreso" style="rounded=1;whiteSpace=wrap;html=1;arcSize=24;fillColor=#ffffc0;strokeColor=#ff0000;shadow=0;comic=0;labelBackgroundColor=none;fontFamily=Verdana;fontSize=12;fontColor=#000000;align=center;" parent="1" vertex="1">
          <mxGeometry x="171" y="227.5" width="120" height="60" as="geometry" />
        </mxCell>
        <mxCell id="xOWjK45ZcuusnBk7tprW-53" value="&lt;font style=&quot;font-size: 11px&quot;&gt;Consulta &lt;br&gt;parametrización &lt;br&gt;&lt;/font&gt;&lt;div style=&quot;font-size: 11px&quot;&gt;&lt;font style=&quot;font-size: 11px&quot;&gt;de extracción&lt;/font&gt;&lt;/div&gt;" style="edgeStyle=orthogonalEdgeStyle;rounded=1;orthogonalLoop=1;jettySize=auto;html=1;fontSize=12;fontFamily=Verdana;fillColor=#ffffc0;strokeColor=#ff0000;fontColor=#000000;arcSize=24;shadow=0;comic=0;labelBackgroundColor=none;align=left;" parent="1" source="382b91b5511bd0f7-7" target="xOWjK45ZcuusnBk7tprW-51" edge="1">
          <mxGeometry x="-0.1111" y="10" relative="1" as="geometry">
            <mxPoint as="offset" />
          </mxGeometry>
        </mxCell>
        <mxCell id="382b91b5511bd0f7-7" value="Backup OK" style="rounded=1;whiteSpace=wrap;html=1;arcSize=24;fillColor=#ffffc0;strokeColor=#ff0000;shadow=0;comic=0;labelBackgroundColor=none;fontFamily=Verdana;fontSize=12;fontColor=#000000;align=center;" parent="1" vertex="1">
          <mxGeometry x="799" y="337.5" width="120" height="60" as="geometry" />
        </mxCell>
        <mxCell id="2a3bc250acf0617d-9" value="&lt;font style=&quot;font-size: 10px&quot;&gt;Inicio &lt;br&gt;proceso equipo&lt;/font&gt;" style="edgeStyle=orthogonalEdgeStyle;html=1;labelBackgroundColor=none;endArrow=open;endSize=8;strokeColor=#ff0000;fontFamily=Verdana;fontSize=12;align=left;fillColor=#ffffc0;fontColor=#000000;arcSize=24;shadow=0;comic=0;" parent="1" source="382b91b5511bd0f7-1" target="382b91b5511bd0f7-6" edge="1">
          <mxGeometry x="-0.3333" y="18" relative="1" as="geometry">
            <mxPoint as="offset" />
          </mxGeometry>
        </mxCell>
        <mxCell id="xOWjK45ZcuusnBk7tprW-55" value="Almacena &lt;br&gt;enlaces" style="edgeStyle=orthogonalEdgeStyle;rounded=1;orthogonalLoop=1;jettySize=auto;html=1;fontSize=12;fontFamily=Verdana;fillColor=#ffffc0;strokeColor=#ff0000;fontColor=#000000;arcSize=24;shadow=0;comic=0;labelBackgroundColor=none;align=left;" parent="1" source="3cde6dad864a17aa-1" target="382b91b5511bd0f7-5" edge="1">
          <mxGeometry y="10" relative="1" as="geometry">
            <mxPoint as="offset" />
          </mxGeometry>
        </mxCell>
        <mxCell id="3cde6dad864a17aa-1" value="Script OK" style="rounded=1;whiteSpace=wrap;html=1;arcSize=24;fillColor=#ffffc0;strokeColor=#ff0000;shadow=0;comic=0;labelBackgroundColor=none;fontFamily=Verdana;fontSize=12;fontColor=#000000;align=center;" parent="1" vertex="1">
          <mxGeometry x="799" y="577.5" width="120" height="60" as="geometry" />
        </mxCell>
        <mxCell id="24f968d109e7d6b4-3" value="" style="ellipse;html=1;shape=endState;fillColor=#000000;strokeColor=#ff0000;rounded=1;shadow=0;comic=0;labelBackgroundColor=none;fontFamily=Verdana;fontSize=12;fontColor=#000000;align=center;" parent="1" vertex="1">
          <mxGeometry x="516" y="537.5" width="30" height="30" as="geometry" />
        </mxCell>
        <mxCell id="xOWjK45ZcuusnBk7tprW-50" style="edgeStyle=orthogonalEdgeStyle;rounded=1;orthogonalLoop=1;jettySize=auto;html=1;fontSize=12;fontFamily=Verdana;fillColor=#ffffc0;strokeColor=#ff0000;fontColor=#000000;arcSize=24;shadow=0;comic=0;labelBackgroundColor=none;" parent="1" target="382b91b5511bd0f7-7" edge="1">
          <mxGeometry relative="1" as="geometry">
            <mxPoint x="929" y="332.5" as="targetPoint" />
            <mxPoint x="721" y="367.5" as="sourcePoint" />
          </mxGeometry>
        </mxCell>
        <mxCell id="xOWjK45ZcuusnBk7tprW-67" value="Sí" style="edgeLabel;html=1;align=center;verticalAlign=middle;resizable=0;points=[];" parent="xOWjK45ZcuusnBk7tprW-50" vertex="1" connectable="0">
          <mxGeometry x="-0.7998" y="1" relative="1" as="geometry">
            <mxPoint x="-6" y="-14" as="offset" />
          </mxGeometry>
        </mxCell>
        <mxCell id="M-7ExB-IJ8JKMZV2mHYD-44" value="Almacena &lt;br&gt;RAW data&lt;br&gt;en BD" style="edgeLabel;html=1;align=center;verticalAlign=middle;resizable=0;points=[];fontSize=10;" vertex="1" connectable="0" parent="xOWjK45ZcuusnBk7tprW-50">
          <mxGeometry x="-0.2454" y="1" relative="1" as="geometry">
            <mxPoint x="8" y="21" as="offset" />
          </mxGeometry>
        </mxCell>
        <mxCell id="xOWjK45ZcuusnBk7tprW-54" value="&lt;font style=&quot;font-size: 10px&quot;&gt;Ejecuta script &lt;br&gt;de extracción&lt;/font&gt;" style="edgeStyle=orthogonalEdgeStyle;rounded=1;orthogonalLoop=1;jettySize=auto;html=1;fontSize=12;fontFamily=Verdana;fillColor=#ffffc0;strokeColor=#ff0000;fontColor=#000000;arcSize=24;shadow=0;comic=0;labelBackgroundColor=none;align=left;" parent="1" source="xOWjK45ZcuusnBk7tprW-51" target="3cde6dad864a17aa-1" edge="1">
          <mxGeometry x="0.2727" y="10" relative="1" as="geometry">
            <mxPoint as="offset" />
          </mxGeometry>
        </mxCell>
        <mxCell id="xOWjK45ZcuusnBk7tprW-58" value="" style="edgeStyle=orthogonalEdgeStyle;rounded=1;orthogonalLoop=1;jettySize=auto;html=1;fontSize=12;fontFamily=Verdana;fillColor=#ffffc0;strokeColor=#ff0000;fontColor=#000000;arcSize=24;shadow=0;comic=0;labelBackgroundColor=none;" parent="1" source="xOWjK45ZcuusnBk7tprW-51" target="xOWjK45ZcuusnBk7tprW-56" edge="1">
          <mxGeometry relative="1" as="geometry">
            <Array as="points">
              <mxPoint x="919" y="482.5" />
              <mxPoint x="919" y="482.5" />
            </Array>
          </mxGeometry>
        </mxCell>
        <mxCell id="xOWjK45ZcuusnBk7tprW-68" value="Sí" style="edgeLabel;html=1;align=center;verticalAlign=middle;resizable=0;points=[];" parent="xOWjK45ZcuusnBk7tprW-58" vertex="1" connectable="0">
          <mxGeometry x="-0.4011" y="1" relative="1" as="geometry">
            <mxPoint x="-48" y="41" as="offset" />
          </mxGeometry>
        </mxCell>
        <mxCell id="xOWjK45ZcuusnBk7tprW-69" value="No" style="edgeLabel;html=1;align=center;verticalAlign=middle;resizable=0;points=[];" parent="xOWjK45ZcuusnBk7tprW-58" vertex="1" connectable="0">
          <mxGeometry x="-0.2505" y="-1" relative="1" as="geometry">
            <mxPoint x="-12" y="-11" as="offset" />
          </mxGeometry>
        </mxCell>
        <mxCell id="xOWjK45ZcuusnBk7tprW-51" value="Extraer enlaces?" style="rhombus;whiteSpace=wrap;html=1;fontFamily=Verdana;fillColor=#ffffc0;strokeColor=#ff0000;fontColor=#000000;rounded=1;arcSize=24;shadow=0;comic=0;labelBackgroundColor=none;" parent="1" vertex="1">
          <mxGeometry x="819" y="442.5" width="80" height="80" as="geometry" />
        </mxCell>
        <mxCell id="xOWjK45ZcuusnBk7tprW-56" value="" style="ellipse;html=1;shape=endState;fillColor=#000000;strokeColor=#ff0000;rounded=1;shadow=0;comic=0;labelBackgroundColor=none;fontFamily=Verdana;fontSize=12;fontColor=#000000;align=center;" parent="1" vertex="1">
          <mxGeometry x="959" y="467.5" width="30" height="30" as="geometry" />
        </mxCell>
        <mxCell id="xOWjK45ZcuusnBk7tprW-70" value="Fin con Error" style="text;html=1;strokeColor=none;fillColor=none;align=center;verticalAlign=middle;whiteSpace=wrap;rounded=0;" parent="1" vertex="1">
          <mxGeometry x="201" y="567.5" width="60" height="30" as="geometry" />
        </mxCell>
        <mxCell id="xOWjK45ZcuusnBk7tprW-71" value="Fin con éxito" style="text;html=1;strokeColor=none;fillColor=none;align=left;verticalAlign=middle;whiteSpace=wrap;rounded=0;" parent="1" vertex="1">
          <mxGeometry x="999" y="467.5" width="60" height="30" as="geometry" />
        </mxCell>
        <mxCell id="M-7ExB-IJ8JKMZV2mHYD-1" value="" style="edgeStyle=orthogonalEdgeStyle;rounded=1;orthogonalLoop=1;jettySize=auto;html=1;fontSize=12;fontFamily=Verdana;fillColor=#ffffc0;strokeColor=#ff0000;fontColor=#000000;arcSize=24;shadow=0;comic=0;labelBackgroundColor=none;exitX=0.5;exitY=1;exitDx=0;exitDy=0;" edge="1" parent="1" target="M-7ExB-IJ8JKMZV2mHYD-6" source="382b91b5511bd0f7-6">
          <mxGeometry relative="1" as="geometry">
            <mxPoint x="231" y="297.5" as="sourcePoint" />
          </mxGeometry>
        </mxCell>
        <mxCell id="M-7ExB-IJ8JKMZV2mHYD-2" value="ping al &lt;br&gt;equipo" style="edgeLabel;html=1;align=center;verticalAlign=middle;resizable=0;points=[];" vertex="1" connectable="0" parent="M-7ExB-IJ8JKMZV2mHYD-1">
          <mxGeometry x="0.2128" y="-1" relative="1" as="geometry">
            <mxPoint x="30" as="offset" />
          </mxGeometry>
        </mxCell>
        <mxCell id="M-7ExB-IJ8JKMZV2mHYD-3" value="" style="edgeStyle=orthogonalEdgeStyle;rounded=1;orthogonalLoop=1;jettySize=auto;html=1;fontSize=12;fontFamily=Verdana;fillColor=#ffffc0;strokeColor=#ff0000;fontColor=#000000;arcSize=24;shadow=0;comic=0;labelBackgroundColor=none;" edge="1" parent="1" source="M-7ExB-IJ8JKMZV2mHYD-6" target="M-7ExB-IJ8JKMZV2mHYD-10">
          <mxGeometry relative="1" as="geometry" />
        </mxCell>
        <mxCell id="M-7ExB-IJ8JKMZV2mHYD-4" value="abre conexión&lt;br&gt;SSH o Telnet" style="edgeLabel;html=1;align=center;verticalAlign=middle;resizable=0;points=[];" vertex="1" connectable="0" parent="M-7ExB-IJ8JKMZV2mHYD-3">
          <mxGeometry x="-0.1673" y="1" relative="1" as="geometry">
            <mxPoint y="21" as="offset" />
          </mxGeometry>
        </mxCell>
        <mxCell id="M-7ExB-IJ8JKMZV2mHYD-5" value="Sí" style="edgeLabel;html=1;align=center;verticalAlign=middle;resizable=0;points=[];" vertex="1" connectable="0" parent="M-7ExB-IJ8JKMZV2mHYD-3">
          <mxGeometry x="-0.1943" y="2" relative="1" as="geometry">
            <mxPoint x="-30" y="-13" as="offset" />
          </mxGeometry>
        </mxCell>
        <mxCell id="M-7ExB-IJ8JKMZV2mHYD-6" value="responde?" style="rhombus;whiteSpace=wrap;html=1;fontFamily=Verdana;fillColor=#ffffc0;strokeColor=#ff0000;fontColor=#000000;rounded=1;arcSize=24;shadow=0;comic=0;labelBackgroundColor=none;" vertex="1" parent="1">
          <mxGeometry x="191" y="327.5" width="80" height="80" as="geometry" />
        </mxCell>
        <mxCell id="M-7ExB-IJ8JKMZV2mHYD-7" value="" style="edgeStyle=orthogonalEdgeStyle;rounded=1;orthogonalLoop=1;jettySize=auto;html=1;fontSize=12;fontFamily=Verdana;fillColor=#ffffc0;strokeColor=#ff0000;fontColor=#000000;arcSize=24;shadow=0;comic=0;labelBackgroundColor=none;" edge="1" parent="1" source="M-7ExB-IJ8JKMZV2mHYD-10" target="M-7ExB-IJ8JKMZV2mHYD-14">
          <mxGeometry relative="1" as="geometry" />
        </mxCell>
        <mxCell id="M-7ExB-IJ8JKMZV2mHYD-8" value="realiza&lt;br&gt;autenticación" style="edgeLabel;html=1;align=center;verticalAlign=middle;resizable=0;points=[];" vertex="1" connectable="0" parent="M-7ExB-IJ8JKMZV2mHYD-7">
          <mxGeometry x="0.1429" y="1" relative="1" as="geometry">
            <mxPoint x="-10" y="16" as="offset" />
          </mxGeometry>
        </mxCell>
        <mxCell id="M-7ExB-IJ8JKMZV2mHYD-9" value="Sí" style="edgeLabel;html=1;align=center;verticalAlign=middle;resizable=0;points=[];" vertex="1" connectable="0" parent="M-7ExB-IJ8JKMZV2mHYD-7">
          <mxGeometry x="-0.2286" relative="1" as="geometry">
            <mxPoint x="-29" y="-15" as="offset" />
          </mxGeometry>
        </mxCell>
        <mxCell id="M-7ExB-IJ8JKMZV2mHYD-10" value="conecta?" style="rhombus;whiteSpace=wrap;html=1;fontFamily=Verdana;fillColor=#ffffc0;strokeColor=#ff0000;fontColor=#000000;rounded=1;arcSize=24;shadow=0;comic=0;labelBackgroundColor=none;" vertex="1" parent="1">
          <mxGeometry x="341" y="327.5" width="80" height="80" as="geometry" />
        </mxCell>
        <mxCell id="M-7ExB-IJ8JKMZV2mHYD-11" value="" style="edgeStyle=orthogonalEdgeStyle;rounded=1;orthogonalLoop=1;jettySize=auto;html=1;fontSize=12;fontFamily=Verdana;fillColor=#ffffc0;strokeColor=#ff0000;fontColor=#000000;arcSize=24;shadow=0;comic=0;labelBackgroundColor=none;" edge="1" parent="1" source="M-7ExB-IJ8JKMZV2mHYD-14" target="M-7ExB-IJ8JKMZV2mHYD-17">
          <mxGeometry relative="1" as="geometry" />
        </mxCell>
        <mxCell id="M-7ExB-IJ8JKMZV2mHYD-12" value="ejecuta &lt;br&gt;comando" style="edgeLabel;html=1;align=center;verticalAlign=middle;resizable=0;points=[];" vertex="1" connectable="0" parent="M-7ExB-IJ8JKMZV2mHYD-11">
          <mxGeometry x="0.3601" relative="1" as="geometry">
            <mxPoint x="-18" y="15" as="offset" />
          </mxGeometry>
        </mxCell>
        <mxCell id="M-7ExB-IJ8JKMZV2mHYD-13" value="Sí" style="edgeLabel;html=1;align=center;verticalAlign=middle;resizable=0;points=[];" vertex="1" connectable="0" parent="M-7ExB-IJ8JKMZV2mHYD-11">
          <mxGeometry x="-0.894" y="1" relative="1" as="geometry">
            <mxPoint y="-14" as="offset" />
          </mxGeometry>
        </mxCell>
        <mxCell id="M-7ExB-IJ8JKMZV2mHYD-14" value="autentica?" style="rhombus;whiteSpace=wrap;html=1;fontFamily=Verdana;fillColor=#ffffc0;strokeColor=#ff0000;fontColor=#000000;rounded=1;arcSize=24;shadow=0;comic=0;labelBackgroundColor=none;" vertex="1" parent="1">
          <mxGeometry x="491" y="327.5" width="80" height="80" as="geometry" />
        </mxCell>
        <mxCell id="M-7ExB-IJ8JKMZV2mHYD-15" value="" style="edgeStyle=orthogonalEdgeStyle;rounded=1;orthogonalLoop=1;jettySize=auto;html=1;fontSize=12;fontFamily=Verdana;fillColor=#ffffc0;strokeColor=#ff0000;fontColor=#000000;arcSize=24;shadow=0;comic=0;labelBackgroundColor=none;" edge="1" parent="1" source="M-7ExB-IJ8JKMZV2mHYD-17" target="M-7ExB-IJ8JKMZV2mHYD-31">
          <mxGeometry relative="1" as="geometry" />
        </mxCell>
        <mxCell id="M-7ExB-IJ8JKMZV2mHYD-16" value="No" style="edgeLabel;html=1;align=center;verticalAlign=middle;resizable=0;points=[];" vertex="1" connectable="0" parent="M-7ExB-IJ8JKMZV2mHYD-15">
          <mxGeometry x="-0.782" y="1" relative="1" as="geometry">
            <mxPoint x="7" y="6" as="offset" />
          </mxGeometry>
        </mxCell>
        <mxCell id="M-7ExB-IJ8JKMZV2mHYD-17" value="responde&lt;br&gt;ok?" style="rhombus;whiteSpace=wrap;html=1;fontFamily=Verdana;fillColor=#ffffc0;strokeColor=#ff0000;fontColor=#000000;rounded=1;arcSize=24;shadow=0;comic=0;labelBackgroundColor=none;" vertex="1" parent="1">
          <mxGeometry x="641" y="327.5" width="80" height="80" as="geometry" />
        </mxCell>
        <mxCell id="M-7ExB-IJ8JKMZV2mHYD-18" value="" style="edgeStyle=orthogonalEdgeStyle;rounded=1;orthogonalLoop=1;jettySize=auto;html=1;fontSize=12;fontFamily=Verdana;fillColor=#ffffc0;strokeColor=#ff0000;fontColor=#000000;arcSize=24;shadow=0;comic=0;labelBackgroundColor=none;" edge="1" parent="1" target="M-7ExB-IJ8JKMZV2mHYD-25">
          <mxGeometry relative="1" as="geometry">
            <mxPoint x="231.01492537313425" y="407.48507462686575" as="sourcePoint" />
          </mxGeometry>
        </mxCell>
        <mxCell id="M-7ExB-IJ8JKMZV2mHYD-19" value="No" style="edgeLabel;html=1;align=center;verticalAlign=middle;resizable=0;points=[];" vertex="1" connectable="0" parent="M-7ExB-IJ8JKMZV2mHYD-18">
          <mxGeometry x="-0.6734" y="1" relative="1" as="geometry">
            <mxPoint x="7" y="4" as="offset" />
          </mxGeometry>
        </mxCell>
        <mxCell id="M-7ExB-IJ8JKMZV2mHYD-20" value="" style="edgeStyle=orthogonalEdgeStyle;rounded=1;orthogonalLoop=1;jettySize=auto;html=1;fontSize=12;fontFamily=Verdana;fillColor=#ffffc0;strokeColor=#ff0000;fontColor=#000000;arcSize=24;shadow=0;comic=0;labelBackgroundColor=none;" edge="1" parent="1" target="M-7ExB-IJ8JKMZV2mHYD-27">
          <mxGeometry relative="1" as="geometry">
            <mxPoint x="381.01492537313425" y="407.4850746268655" as="sourcePoint" />
          </mxGeometry>
        </mxCell>
        <mxCell id="M-7ExB-IJ8JKMZV2mHYD-21" value="No" style="edgeLabel;html=1;align=center;verticalAlign=middle;resizable=0;points=[];" vertex="1" connectable="0" parent="M-7ExB-IJ8JKMZV2mHYD-20">
          <mxGeometry x="-0.4719" y="-1" relative="1" as="geometry">
            <mxPoint x="9" y="-1" as="offset" />
          </mxGeometry>
        </mxCell>
        <mxCell id="M-7ExB-IJ8JKMZV2mHYD-22" value="" style="edgeStyle=orthogonalEdgeStyle;rounded=1;orthogonalLoop=1;jettySize=auto;html=1;fontSize=12;fontFamily=Verdana;fillColor=#ffffc0;strokeColor=#ff0000;fontColor=#000000;arcSize=24;shadow=0;comic=0;labelBackgroundColor=none;" edge="1" parent="1" target="M-7ExB-IJ8JKMZV2mHYD-29">
          <mxGeometry relative="1" as="geometry">
            <mxPoint x="531.0149253731342" y="407.4850746268655" as="sourcePoint" />
          </mxGeometry>
        </mxCell>
        <mxCell id="M-7ExB-IJ8JKMZV2mHYD-23" value="No" style="edgeLabel;html=1;align=center;verticalAlign=middle;resizable=0;points=[];" vertex="1" connectable="0" parent="M-7ExB-IJ8JKMZV2mHYD-22">
          <mxGeometry x="-0.6329" relative="1" as="geometry">
            <mxPoint x="8" y="3" as="offset" />
          </mxGeometry>
        </mxCell>
        <mxCell id="M-7ExB-IJ8JKMZV2mHYD-36" value="" style="edgeStyle=orthogonalEdgeStyle;rounded=0;orthogonalLoop=1;jettySize=auto;html=1;fontSize=10;" edge="1" parent="1" source="M-7ExB-IJ8JKMZV2mHYD-25" target="M-7ExB-IJ8JKMZV2mHYD-33">
          <mxGeometry relative="1" as="geometry" />
        </mxCell>
        <mxCell id="M-7ExB-IJ8JKMZV2mHYD-25" value="No encontrado" style="rounded=1;whiteSpace=wrap;html=1;arcSize=24;fillColor=#ffffc0;strokeColor=#ff0000;shadow=0;comic=0;labelBackgroundColor=none;fontFamily=Verdana;fontSize=12;fontColor=#000000;align=center;" vertex="1" parent="1">
          <mxGeometry x="171" y="442.5" width="120" height="60" as="geometry" />
        </mxCell>
        <mxCell id="M-7ExB-IJ8JKMZV2mHYD-35" value="" style="edgeStyle=orthogonalEdgeStyle;rounded=0;orthogonalLoop=1;jettySize=auto;html=1;fontSize=10;" edge="1" parent="1" source="M-7ExB-IJ8JKMZV2mHYD-27" target="M-7ExB-IJ8JKMZV2mHYD-34">
          <mxGeometry relative="1" as="geometry" />
        </mxCell>
        <mxCell id="M-7ExB-IJ8JKMZV2mHYD-27" value="Error Conexión" style="rounded=1;whiteSpace=wrap;html=1;arcSize=24;fillColor=#ffffc0;strokeColor=#ff0000;shadow=0;comic=0;labelBackgroundColor=none;fontFamily=Verdana;fontSize=12;fontColor=#000000;align=center;" vertex="1" parent="1">
          <mxGeometry x="321" y="442.5" width="120" height="60" as="geometry" />
        </mxCell>
        <mxCell id="M-7ExB-IJ8JKMZV2mHYD-38" value="" style="edgeStyle=orthogonalEdgeStyle;rounded=0;orthogonalLoop=1;jettySize=auto;html=1;fontSize=10;" edge="1" parent="1" source="M-7ExB-IJ8JKMZV2mHYD-29" target="24f968d109e7d6b4-3">
          <mxGeometry relative="1" as="geometry" />
        </mxCell>
        <mxCell id="M-7ExB-IJ8JKMZV2mHYD-29" value="Error &lt;br&gt;Autenticación" style="rounded=1;whiteSpace=wrap;html=1;arcSize=24;fillColor=#ffffc0;strokeColor=#ff0000;shadow=0;comic=0;labelBackgroundColor=none;fontFamily=Verdana;fontSize=12;fontColor=#000000;align=center;" vertex="1" parent="1">
          <mxGeometry x="471" y="442.5" width="120" height="60" as="geometry" />
        </mxCell>
        <mxCell id="M-7ExB-IJ8JKMZV2mHYD-40" value="" style="edgeStyle=orthogonalEdgeStyle;rounded=0;orthogonalLoop=1;jettySize=auto;html=1;fontSize=10;" edge="1" parent="1" source="M-7ExB-IJ8JKMZV2mHYD-31" target="M-7ExB-IJ8JKMZV2mHYD-39">
          <mxGeometry relative="1" as="geometry" />
        </mxCell>
        <mxCell id="M-7ExB-IJ8JKMZV2mHYD-31" value="Error Comando" style="rounded=1;whiteSpace=wrap;html=1;arcSize=24;fillColor=#ffffc0;strokeColor=#ff0000;shadow=0;comic=0;labelBackgroundColor=none;fontFamily=Verdana;fontSize=12;fontColor=#000000;align=center;" vertex="1" parent="1">
          <mxGeometry x="621" y="442.5" width="120" height="60" as="geometry" />
        </mxCell>
        <mxCell id="M-7ExB-IJ8JKMZV2mHYD-32" value="Sí" style="edgeLabel;html=1;align=center;verticalAlign=middle;resizable=0;points=[];" vertex="1" connectable="0" parent="1">
          <mxGeometry x="723" y="352.5" as="geometry" />
        </mxCell>
        <mxCell id="M-7ExB-IJ8JKMZV2mHYD-33" value="" style="ellipse;html=1;shape=endState;fillColor=#000000;strokeColor=#ff0000;rounded=1;shadow=0;comic=0;labelBackgroundColor=none;fontFamily=Verdana;fontSize=12;fontColor=#000000;align=center;" vertex="1" parent="1">
          <mxGeometry x="216" y="537.5" width="30" height="30" as="geometry" />
        </mxCell>
        <mxCell id="M-7ExB-IJ8JKMZV2mHYD-34" value="" style="ellipse;html=1;shape=endState;fillColor=#000000;strokeColor=#ff0000;rounded=1;shadow=0;comic=0;labelBackgroundColor=none;fontFamily=Verdana;fontSize=12;fontColor=#000000;align=center;" vertex="1" parent="1">
          <mxGeometry x="366" y="537.5" width="30" height="30" as="geometry" />
        </mxCell>
        <mxCell id="M-7ExB-IJ8JKMZV2mHYD-39" value="" style="ellipse;html=1;shape=endState;fillColor=#000000;strokeColor=#ff0000;rounded=1;shadow=0;comic=0;labelBackgroundColor=none;fontFamily=Verdana;fontSize=12;fontColor=#000000;align=center;" vertex="1" parent="1">
          <mxGeometry x="666" y="537.5" width="30" height="30" as="geometry" />
        </mxCell>
        <mxCell id="M-7ExB-IJ8JKMZV2mHYD-41" value="Fin con Error" style="text;html=1;strokeColor=none;fillColor=none;align=center;verticalAlign=middle;whiteSpace=wrap;rounded=0;" vertex="1" parent="1">
          <mxGeometry x="351" y="567.5" width="60" height="30" as="geometry" />
        </mxCell>
        <mxCell id="M-7ExB-IJ8JKMZV2mHYD-42" value="Fin con Error" style="text;html=1;strokeColor=none;fillColor=none;align=center;verticalAlign=middle;whiteSpace=wrap;rounded=0;" vertex="1" parent="1">
          <mxGeometry x="501" y="567.5" width="60" height="30" as="geometry" />
        </mxCell>
        <mxCell id="M-7ExB-IJ8JKMZV2mHYD-43" value="Fin con Error" style="text;html=1;strokeColor=none;fillColor=none;align=center;verticalAlign=middle;whiteSpace=wrap;rounded=0;" vertex="1" parent="1">
          <mxGeometry x="651" y="567.5" width="60" height="30" as="geometry" />
        </mxCell>
        <mxCell id="M-7ExB-IJ8JKMZV2mHYD-46" value="" style="swimlane;startSize=0;fontSize=11;dashed=1;fillColor=#dae8fc;strokeColor=#6c8ebf;shadow=0;glass=0;sketch=0;" vertex="1" parent="1">
          <mxGeometry x="155" y="300" width="610" height="470" as="geometry" />
        </mxCell>
        <mxCell id="M-7ExB-IJ8JKMZV2mHYD-47" value="&lt;h1&gt;Inicio asíncrono&lt;/h1&gt;&lt;p&gt;Cada Equipo se procesa de forma asíncrona a los demás equipos y el conciliador prepara la parametrización de conexión y extracción&lt;/p&gt;" style="text;html=1;strokeColor=#6c8ebf;fillColor=#dae8fc;spacing=5;spacingTop=-20;whiteSpace=wrap;overflow=hidden;rounded=0;fontSize=11;align=center;dashed=1;" vertex="1" parent="1">
          <mxGeometry x="36" y="100" width="180" height="120" as="geometry" />
        </mxCell>
        <mxCell id="M-7ExB-IJ8JKMZV2mHYD-65" value="" style="edgeStyle=orthogonalEdgeStyle;rounded=0;orthogonalLoop=1;jettySize=auto;html=1;dashed=1;fontSize=13;entryX=0.604;entryY=-0.003;entryDx=0;entryDy=0;entryPerimeter=0;" edge="1" parent="1" source="M-7ExB-IJ8JKMZV2mHYD-61" target="M-7ExB-IJ8JKMZV2mHYD-46">
          <mxGeometry relative="1" as="geometry" />
        </mxCell>
        <mxCell id="M-7ExB-IJ8JKMZV2mHYD-61" value="&lt;h1&gt;Fase &quot;de conexión&quot; al equipo&lt;/h1&gt;&lt;p&gt;&lt;font style=&quot;font-size: 13px&quot;&gt;Estos estados son generados en la interacción entre el conciliador y el equipo&lt;/font&gt;&lt;/p&gt;" style="text;html=1;strokeColor=#6c8ebf;fillColor=#dae8fc;spacing=5;spacingTop=-20;whiteSpace=wrap;overflow=hidden;rounded=0;dashed=1;fontSize=11;align=center;" vertex="1" parent="1">
          <mxGeometry x="396" y="154" width="255" height="108" as="geometry" />
        </mxCell>
        <mxCell id="M-7ExB-IJ8JKMZV2mHYD-62" value="" style="swimlane;startSize=0;dashed=1;fontSize=13;fillColor=#dae8fc;strokeColor=#6c8ebf;" vertex="1" parent="1">
          <mxGeometry x="765" y="300" width="280" height="470" as="geometry" />
        </mxCell>
        <mxCell id="M-7ExB-IJ8JKMZV2mHYD-64" value="" style="edgeStyle=orthogonalEdgeStyle;rounded=0;orthogonalLoop=1;jettySize=auto;html=1;dashed=1;fontSize=13;entryX=0.5;entryY=0;entryDx=0;entryDy=0;" edge="1" parent="1" source="M-7ExB-IJ8JKMZV2mHYD-63" target="M-7ExB-IJ8JKMZV2mHYD-62">
          <mxGeometry relative="1" as="geometry" />
        </mxCell>
        <mxCell id="M-7ExB-IJ8JKMZV2mHYD-63" value="&lt;h1&gt;Fase &quot;de extracción&quot;&lt;/h1&gt;&lt;p&gt;&lt;span style=&quot;font-size: 13px&quot;&gt;El conciliador se desconecta del equipo y procesa la RAW data del equipo para obtener los enlaces y persistirlos&lt;/span&gt;&lt;/p&gt;" style="text;html=1;strokeColor=#6c8ebf;fillColor=#dae8fc;spacing=5;spacingTop=-20;whiteSpace=wrap;overflow=hidden;rounded=0;dashed=1;fontSize=11;align=center;" vertex="1" parent="1">
          <mxGeometry x="783.5" y="154" width="243" height="96" as="geometry" />
        </mxCell>
        <mxCell id="M-7ExB-IJ8JKMZV2mHYD-68" value="Conciliador de enlaces&#xa;Diagrama de estados de los equipos" style="swimlane;shadow=0;glass=0;sketch=0;fontSize=22;startSize=60;" vertex="1" parent="1">
          <mxGeometry x="25" y="30" width="1050" height="750" as="geometry" />
        </mxCell>
      </root>
    </mxGraphModel>
  </diagram>
</mxfile>
